<?xml version="1.0" standalone="no"?>
<!DOCTYPE svg PUBLIC "-//W3C//DTD SVG 20010904//EN"
 "http://www.w3.org/TR/2001/REC-SVG-20010904/DTD/svg10.dtd">
<svg version="1.0" xmlns="http://www.w3.org/2000/svg"
 width="700.000000pt" height="700.000000pt" viewBox="0 0 700.000000 700.000000"
 preserveAspectRatio="xMidYMid meet">
<metadata>
Created by potrace 1.14, written by Peter Selinger 2001-2017
</metadata>
<g transform="translate(0.000000,700.000000) scale(0.100000,-0.100000)"
fill="#000000" stroke="none">
<path d="M707 5929 c-201 -49 -388 -195 -480 -375 -27 -53 -55 -128 -67 -177
-20 -84 -20 -109 -18 -1824 l3 -1738 26 -77 c84 -246 268 -423 519 -499 l75
-23 1535 -8 c1570 -9 1997 -13 2085 -23 28 -3 88 -1 135 5 50 7 413 15 890 19
767 8 809 10 882 29 304 82 518 325 558 636 7 55 10 621 8 1776 l-3 1695 -24
70 c-85 253 -254 422 -506 507 l-70 23 -2735 2 c-2672 2 -2737 1 -2813 -18z
m3113 -1438 l0 -670 298 6 297 6 -80 -84 c-44 -47 -253 -268 -464 -492 -212
-224 -388 -406 -392 -405 -4 2 -220 218 -479 481 l-472 477 119 0 c65 0 196 3
291 7 l172 6 0 669 0 668 355 0 355 0 0 -669z m-1612 -1793 l2 -228 1260 0
1260 0 0 230 0 230 190 0 190 0 0 -435 0 -435 -1645 0 -1645 0 0 435 0 435
193 -2 192 -3 3 -227z"/>
</g>
</svg>
